<svg width="70" height="52" viewBox="0 0 70 52" fill="none" xmlns="http://www.w3.org/2000/svg">
<path d="M9.73464 23.9739C9.72363 23.8308 9.53328 23.776 9.43834 23.8836C9.05618 24.3171 8.58499 24.651 8.02475 24.8855C7.32795 25.1609 6.55012 25.2986 5.69127 25.2986C5.01067 25.2986 4.38679 25.2176 3.81962 25.0556C3.26866 24.8936 2.78252 24.6506 2.3612 24.3266C1.93987 23.9863 1.60768 23.5732 1.36461 23.0872C1.12154 22.585 1 22.018 1 21.3861C1 20.6895 1.13774 20.0982 1.41322 19.6122C1.6887 19.11 2.06141 18.705 2.53135 18.3971C3.01749 18.0893 3.58465 17.8625 4.23284 17.7167C4.88103 17.5547 5.56163 17.4737 6.27464 17.4737H9.40305C9.48758 17.4737 9.55632 17.4051 9.55419 17.3206C9.53229 16.4545 9.32226 15.7765 8.92411 15.2866C8.50279 14.7682 7.76548 14.5009 6.71217 14.4847C6.09639 14.4847 5.56163 14.59 5.1079 14.8006C4.70354 14.9953 4.42376 15.3075 4.26853 15.7374C4.24558 15.8009 4.18656 15.8456 4.11898 15.8456H1.56538C1.47225 15.8456 1.40051 15.763 1.41688 15.6713C1.52491 15.0664 1.73435 14.5493 2.04521 14.1202C2.40171 13.6504 2.82303 13.2616 3.30917 12.9537C3.81152 12.6459 4.36248 12.4272 4.96206 12.2976C5.57784 12.168 6.19362 12.1032 6.8094 12.1032C7.60343 12.1032 8.34074 12.2085 9.02134 12.4191C9.70194 12.6297 10.2934 12.9861 10.7958 13.4884C11.3629 14.0716 11.7437 14.7682 11.9382 15.5782C12.1327 16.3883 12.2299 17.2712 12.2299 18.227V24.9754C12.2299 25.06 12.1614 25.1285 12.0768 25.1285H9.9652C9.88523 25.1285 9.81874 25.0669 9.8126 24.9872L9.73464 23.9739ZM9.5544 19.5952C9.5563 19.5107 9.48758 19.4421 9.40305 19.4421H6.88232C6.41238 19.4421 5.94244 19.4826 5.47251 19.5636C5.00257 19.6284 4.59745 19.7985 4.25715 20.0739C3.93306 20.3331 3.77101 20.7138 3.77101 21.216C3.77101 21.8317 3.98977 22.3015 4.4273 22.6255C4.88103 22.9333 5.43199 23.0872 6.08018 23.0872C6.58253 23.0872 7.04436 23.0224 7.46569 22.8928C7.90322 22.7632 8.27593 22.5526 8.58382 22.261C8.89171 21.9532 9.12667 21.5725 9.28872 21.1188C9.45278 20.6864 9.54134 20.1785 9.5544 19.5952Z" fill="#332A2E"/>
<path d="M16.7852 7C17.2875 7 17.7007 7.15391 18.0248 7.46172C18.3651 7.76953 18.5353 8.19074 18.5353 8.72536C18.5353 9.24378 18.3651 9.6569 18.0248 9.96471C17.7007 10.2725 17.2875 10.4264 16.7852 10.4264C16.2504 10.4264 15.821 10.2725 15.4969 9.96471C15.1728 9.6569 15.0108 9.24378 15.0108 8.72536C15.0108 8.19074 15.1728 7.76953 15.4969 7.46172C15.821 7.15391 16.2504 7 16.7852 7ZM15.5284 25.1285C15.4439 25.1285 15.3754 25.06 15.3754 24.9754V12.475C15.3754 12.3904 15.4439 12.3219 15.5284 12.3219H17.9933C18.0779 12.3219 18.1464 12.3904 18.1464 12.475V24.9754C18.1464 25.06 18.0779 25.1285 17.9933 25.1285H15.5284Z" fill="#332A2E"/>
<path d="M21.5063 25.1285C21.4217 25.1285 21.3532 25.06 21.3532 24.9754V8.10078C21.3532 8.01626 21.4217 7.94773 21.5063 7.94773H23.9712C24.0557 7.94773 24.1242 8.01626 24.1242 8.10078V13.6484C24.1242 13.7968 24.3214 13.8637 24.4205 13.7534C24.8437 13.2825 25.3607 12.9107 25.9716 12.6378C26.7494 12.2814 27.5353 12.1032 28.3293 12.1032C29.2206 12.1032 30.0146 12.2652 30.7114 12.5892C31.4082 12.897 31.9997 13.3426 32.4859 13.9258C32.972 14.4928 33.3366 15.1813 33.5797 15.9914C33.839 16.7852 33.9686 17.6843 33.9686 18.6888C33.9686 19.6122 33.8552 20.4789 33.6283 21.2889C33.4014 22.0828 33.053 22.7794 32.5831 23.3788C32.1131 23.9782 31.5217 24.4481 30.8087 24.7883C30.1119 25.1285 29.2854 25.2986 28.3293 25.2986C26.6554 25.2986 25.3404 24.8044 24.3841 23.8162C24.2873 23.7161 24.1094 23.7756 24.1009 23.9145C24.0925 24.0541 24.084 24.1914 24.0756 24.3266C24.0756 24.5375 24.0756 24.7538 24.0756 24.9754C24.0756 25.06 24.0071 25.1285 23.9226 25.1285H21.5063ZM27.746 22.8928C28.3456 22.8928 28.8641 22.7875 29.3016 22.5769C29.7392 22.3501 30.0957 22.0504 30.3711 21.6778C30.6628 21.3051 30.8735 20.8677 31.0031 20.3655C31.149 19.8633 31.2219 19.3206 31.2219 18.7374C31.2219 18.1541 31.149 17.6114 31.0031 17.1092C30.8735 16.5908 30.6628 16.1453 30.3711 15.7727C30.0957 15.4 29.7311 15.1084 29.2773 14.8978C28.8398 14.6872 28.3131 14.5819 27.6974 14.5819C27.0654 14.5819 26.5225 14.7034 26.0688 14.9464C25.6313 15.1894 25.2666 15.5134 24.975 15.9185C24.6833 16.3073 24.4645 16.7528 24.3187 17.255C24.1728 17.7572 24.0999 18.2594 24.0999 18.7617C24.0999 19.3125 24.1728 19.839 24.3187 20.3412C24.4645 20.8272 24.6833 21.2565 24.975 21.6292C25.2666 22.0018 25.6394 22.3096 26.0931 22.5526C26.5468 22.7794 27.0978 22.8928 27.746 22.8928Z" fill="#332A2E"/>
<path d="M38.9465 19.6608C38.8578 19.6608 38.7875 19.736 38.7966 19.8242C38.8386 20.2324 38.9311 20.6154 39.0742 20.973C39.2363 21.3781 39.455 21.7345 39.7305 22.0423C40.0222 22.3339 40.3706 22.5688 40.7757 22.747C41.197 22.9252 41.6832 23.0143 42.2341 23.0143C42.8175 23.0143 43.3523 22.909 43.8384 22.6984C44.2956 22.5003 44.6382 22.1661 44.866 21.6958C44.8926 21.6411 44.9472 21.6049 45.008 21.6049H47.5558C47.6554 21.6049 47.7285 21.6985 47.7008 21.7941C47.536 22.3623 47.2856 22.8582 46.9497 23.2816C46.5932 23.7514 46.1638 24.1402 45.6614 24.4481C45.1753 24.7397 44.6324 24.9584 44.0329 25.1042C43.4495 25.2338 42.8256 25.2986 42.1612 25.2986C41.1403 25.2986 40.241 25.1447 39.4631 24.8369C38.7015 24.5291 38.0614 24.0835 37.5429 23.5003C37.0243 22.9171 36.6354 22.2286 36.3761 21.4347C36.1331 20.6247 36.0115 19.7175 36.0115 18.7131C36.0115 17.741 36.1493 16.8581 36.4247 16.0643C36.7002 15.2542 37.0972 14.5576 37.6158 13.9744C38.1505 13.3912 38.7906 12.9375 39.5361 12.6135C40.2815 12.2733 41.1322 12.1032 42.0883 12.1032C43.093 12.1032 43.9599 12.2733 44.6892 12.6135C45.4184 12.9375 46.0261 13.3831 46.5122 13.9501C47.0145 14.5171 47.3872 15.1813 47.6303 15.9428C47.8734 16.7042 47.9949 17.5304 47.9949 18.4214C47.9949 18.796 47.9757 19.1641 47.9373 19.5259C47.9291 19.6029 47.8637 19.6608 47.7862 19.6608H38.9465ZM45.1386 17.5709C45.2251 17.5709 45.2947 17.4991 45.289 17.4128C45.2298 16.5168 44.9245 15.8162 44.3732 15.3109C43.7898 14.7763 43.0363 14.509 42.1126 14.509C41.5941 14.509 41.1403 14.59 40.7514 14.752C40.3625 14.914 40.0303 15.1327 39.7548 15.4081C39.4955 15.6835 39.2849 16.0076 39.1228 16.3802C38.9828 16.7022 38.8851 17.0424 38.8298 17.4007C38.8158 17.4911 38.8871 17.5709 38.9786 17.5709H45.1386Z" fill="#332A2E"/>
<path d="M50.6558 25.1285C50.5713 25.1285 50.5027 25.06 50.5027 24.9754V8.10078C50.5027 8.01626 50.5713 7.94773 50.6558 7.94773H53.0964C53.1809 7.94773 53.2494 8.01626 53.2494 8.10078V17.3936C53.2494 17.4781 53.318 17.5466 53.4025 17.5466H55.1583C55.2108 17.5466 55.2596 17.5197 55.2877 17.4754L58.5033 12.3931C58.5314 12.3488 58.5802 12.3219 58.6327 12.3219H61.3749C61.4969 12.3219 61.5699 12.4577 61.5026 12.5594L57.6802 18.3376C57.6465 18.3885 57.6463 18.4545 57.6796 18.5057L61.8456 24.8918C61.912 24.9936 61.839 25.1285 61.7174 25.1285H58.8743C58.8226 25.1285 58.7744 25.1024 58.7462 25.0591L55.4581 20.0218C55.4298 19.9785 55.3816 19.9524 55.3299 19.9524H53.4025C53.318 19.9524 53.2494 20.0209 53.2494 20.1054V24.9754C53.2494 25.06 53.1809 25.1285 53.0964 25.1285H50.6558Z" fill="#332A2E"/>
<path d="M1.59057 45.2796C1.50605 45.2796 1.43753 45.211 1.43753 45.1265V28.2519C1.43753 28.1674 1.50605 28.0989 1.59057 28.0989H4.05549C4.14002 28.0989 4.20854 28.1674 4.20854 28.2519V33.7996C4.20854 33.9479 4.40568 34.0148 4.50483 33.9045C4.92804 33.4336 5.44506 33.0618 6.05588 32.789C6.8337 32.4325 7.61963 32.2543 8.41366 32.2543C9.30492 32.2543 10.099 32.4163 10.7958 32.7404C11.4926 33.0482 12.084 33.4937 12.5702 34.0769C13.0563 34.6439 13.4209 35.3324 13.664 36.1425C13.9233 36.9363 14.0529 37.8354 14.0529 38.8399C14.0529 39.7633 13.9395 40.63 13.7126 41.4401C13.4857 42.2339 13.1373 42.9305 12.6674 43.5299C12.1975 44.1293 11.606 44.5991 10.893 44.9393C10.1962 45.2796 9.36974 45.4497 8.41366 45.4497C6.73975 45.4497 5.42468 44.9555 4.46847 43.9672C4.37167 43.8672 4.19368 43.9267 4.18527 44.0656C4.17682 44.2052 4.16837 44.3425 4.15992 44.4776C4.15992 44.6886 4.15992 44.9049 4.15992 45.1265C4.15992 45.211 4.0914 45.2796 4.00688 45.2796H1.59057ZM7.83029 43.0439C8.42987 43.0439 8.94842 42.9386 9.38595 42.728C9.82348 42.5012 10.18 42.2015 10.4555 41.8289C10.7471 41.4563 10.9578 41.0188 11.0874 40.5166C11.2333 40.0144 11.3062 39.4717 11.3062 38.8885C11.3062 38.3052 11.2333 37.7625 11.0874 37.2603C10.9578 36.7419 10.7471 36.2964 10.4555 35.9238C10.18 35.5512 9.81538 35.2595 9.36164 35.0489C8.92412 34.8383 8.39746 34.733 7.78168 34.733C7.1497 34.733 6.60684 34.8545 6.15311 35.0975C5.71558 35.3405 5.35097 35.6646 5.05929 36.0696C4.7676 36.4584 4.54884 36.9039 4.40299 37.4061C4.25715 37.9083 4.18423 38.4106 4.18423 38.9128C4.18423 39.4636 4.25715 39.9901 4.40299 40.4923C4.54884 40.9783 4.7676 41.4077 5.05929 41.7803C5.35097 42.1529 5.72368 42.4607 6.17741 42.7037C6.63115 42.9305 7.18211 43.0439 7.83029 43.0439Z" fill="#332A2E"/>
<path d="M24.8791 44.125C24.8681 43.9819 24.6777 43.927 24.5828 44.0347C24.2006 44.4681 23.7294 44.8021 23.1692 45.0365C22.4724 45.312 21.6946 45.4497 20.8357 45.4497C20.1551 45.4497 19.5312 45.3687 18.9641 45.2067C18.4131 45.0446 17.927 44.8016 17.5057 44.4776C17.0843 44.1374 16.7521 43.7244 16.5091 43.2383C16.266 42.7361 16.1445 42.1691 16.1445 41.5373C16.1445 40.8406 16.2822 40.2493 16.5577 39.7633C16.8332 39.2611 17.2059 38.8561 17.6758 38.5483C18.162 38.2405 18.7291 38.0136 19.3773 37.8678C20.0255 37.7058 20.7061 37.6248 21.4191 37.6248H24.5475C24.632 37.6248 24.7008 37.5562 24.6986 37.4717C24.6767 36.6056 24.4667 35.9277 24.0686 35.4377C23.6473 34.9193 22.9099 34.652 21.8566 34.6358C21.2409 34.6358 20.7061 34.7411 20.2524 34.9517C19.848 35.1464 19.5682 35.4586 19.413 35.8885C19.39 35.9521 19.331 35.9967 19.2634 35.9967H16.7098C16.6167 35.9967 16.545 35.9141 16.5613 35.8224C16.6694 35.2175 16.8788 34.7005 17.1897 34.2713C17.5462 33.8015 17.9675 33.4127 18.4536 33.1049C18.956 32.7971 19.5069 32.5783 20.1065 32.4487C20.7223 32.3191 21.3381 32.2543 21.9539 32.2543C22.7479 32.2543 23.4852 32.3596 24.1658 32.5702C24.8464 32.7808 25.4379 33.1373 25.9402 33.6395C26.5074 34.2227 26.8882 34.9193 27.0827 35.7294C27.2771 36.5394 27.3743 37.4223 27.3743 38.3782V45.1265C27.3743 45.211 27.3058 45.2796 27.2213 45.2796H25.1097C25.0297 45.2796 24.9632 45.218 24.9571 45.1383L24.8791 44.125ZM24.6989 39.7463C24.7008 39.6618 24.632 39.5932 24.5475 39.5932H22.0268C21.5568 39.5932 21.0869 39.6337 20.617 39.7147C20.147 39.7795 19.7419 39.9496 19.4016 40.225C19.0775 40.4842 18.9155 40.8649 18.9155 41.3672C18.9155 41.9828 19.1342 42.4526 19.5718 42.7766C20.0255 43.0844 20.5765 43.2383 21.2246 43.2383C21.727 43.2383 22.1888 43.1735 22.6101 43.0439C23.0477 42.9143 23.4204 42.7037 23.7283 42.4121C24.0362 42.1043 24.2711 41.7236 24.4332 41.27C24.5972 40.8376 24.6858 40.3297 24.6989 39.7463Z" fill="#332A2E"/>
<path d="M31.9296 27.1512C32.432 27.1512 32.8452 27.3051 33.1693 27.6129C33.5096 27.9207 33.6798 28.3419 33.6798 28.8765C33.6798 29.3949 33.5096 29.808 33.1693 30.1159C32.8452 30.4237 32.432 30.5776 31.9296 30.5776C31.3949 30.5776 30.9655 30.4237 30.6414 30.1159C30.3173 29.808 30.1552 29.3949 30.1552 28.8765C30.1552 28.3419 30.3173 27.9207 30.6414 27.6129C30.9655 27.3051 31.3949 27.1512 31.9296 27.1512ZM30.6729 45.2796C30.5884 45.2796 30.5198 45.211 30.5198 45.1265V32.6261C30.5198 32.5416 30.5884 32.473 30.6729 32.473H33.1378C33.2223 32.473 33.2908 32.5416 33.2908 32.6261V45.1265C33.2908 45.211 33.2223 45.2796 33.1378 45.2796H30.6729Z" fill="#332A2E"/>
<path d="M36.6507 45.2796C36.5662 45.2796 36.4977 45.211 36.4977 45.1265V28.2519C36.4977 28.1674 36.5662 28.0989 36.6507 28.0989H39.0913C39.1758 28.0989 39.2444 28.1674 39.2444 28.2519V37.5447C39.2444 37.6292 39.3129 37.6977 39.3974 37.6977H41.1533C41.2057 37.6977 41.2546 37.6709 41.2826 37.6265L44.4983 32.5443C44.5263 32.4999 44.5751 32.473 44.6276 32.473H47.3699C47.4919 32.473 47.5648 32.6088 47.4975 32.7105L43.6751 38.4887C43.6414 38.5396 43.6412 38.6056 43.6746 38.6568L47.8405 45.0429C47.907 45.1447 47.8339 45.2796 47.7124 45.2796H44.8693C44.8176 45.2796 44.7694 45.2535 44.7411 45.2102L41.453 40.1729C41.4247 40.1296 41.3765 40.1035 41.3248 40.1035H39.3974C39.3129 40.1035 39.2444 40.172 39.2444 40.2566V45.1265C39.2444 45.211 39.1758 45.2796 39.0913 45.2796H36.6507Z" fill="#332A2E"/>
<path d="M52.0021 39.8119C51.9134 39.8119 51.843 39.8871 51.8521 39.9753C51.8941 40.3835 51.9867 40.7665 52.1298 41.1242C52.2918 41.5292 52.5106 41.8856 52.7861 42.1934C53.0778 42.485 53.4262 42.7199 53.8313 42.8981C54.2526 43.0763 54.7388 43.1654 55.2897 43.1654C55.8731 43.1654 56.4078 43.0601 56.894 42.8495C57.3512 42.6514 57.6937 42.3172 57.9216 41.8469C57.9481 41.7922 58.0028 41.756 58.0636 41.756H60.6114C60.711 41.756 60.7841 41.8496 60.7564 41.9453C60.5916 42.5135 60.3412 43.0093 60.0053 43.4327C59.6488 43.9025 59.2194 44.2913 58.717 44.5991C58.2309 44.8908 57.688 45.1094 57.0884 45.2553C56.5051 45.3849 55.8812 45.4497 55.2168 45.4497C54.1959 45.4497 53.2965 45.2958 52.5187 44.9879C51.7571 44.6801 51.117 44.2346 50.5984 43.6514C50.0799 43.0682 49.691 42.3797 49.4317 41.5859C49.1886 40.7758 49.0671 39.8686 49.0671 38.8642C49.0671 37.8921 49.2048 37.0092 49.4803 36.2154C49.7558 35.4053 50.1528 34.7087 50.6714 34.1255C51.2061 33.5423 51.8462 33.0887 52.5916 32.7646C53.3371 32.4244 54.1878 32.2543 55.1439 32.2543C56.1486 32.2543 57.0155 32.4244 57.7447 32.7646C58.4739 33.0887 59.0816 33.5342 59.5678 34.1012C60.0701 34.6682 60.4428 35.3324 60.6859 36.0939C60.929 36.8553 61.0505 37.6815 61.0505 38.5726C61.0505 38.9471 61.0313 39.3153 60.9928 39.677C60.9847 39.754 60.9193 39.8119 60.8418 39.8119H52.0021ZM58.1942 37.722C58.2807 37.722 58.3503 37.6502 58.3446 37.5639C58.2854 36.6679 57.9801 35.9673 57.4287 35.462C56.8454 34.9274 56.0919 34.6601 55.1682 34.6601C54.6496 34.6601 54.1959 34.7411 53.807 34.9031C53.4181 35.0651 53.0859 35.2838 52.8104 35.5593C52.5511 35.8347 52.3405 36.1587 52.1784 36.5313C52.0384 36.8533 51.9407 37.1935 51.8853 37.5518C51.8714 37.6422 51.9427 37.722 52.0341 37.722H58.1942Z" fill="#332A2E"/>
</svg>
