<svg width="23" height="19" viewBox="0 0 23 19" fill="none" xmlns="http://www.w3.org/2000/svg">
<path d="M20.9199 0.254785C20.9199 0.254785 22.9801 -0.548625 22.8077 1.40236C22.751 2.20577 22.2361 5.01797 21.8352 8.05925L20.4617 17.0691C20.4617 17.0691 20.3471 18.389 19.3167 18.6186C18.2869 18.8477 16.7416 17.8152 16.4552 17.5856C16.2261 17.4133 12.163 14.8307 10.7322 13.5686C10.3313 13.2239 9.87311 12.5355 10.7895 11.7321L16.7983 5.99319C17.4851 5.30486 18.1718 3.69804 15.3103 5.64903L7.29743 11.1005C7.29743 11.1005 6.38159 11.6749 4.665 11.1583L0.944396 10.0102C0.944396 10.0102 -0.429089 9.14956 1.9175 8.28887C7.64106 5.59175 14.6808 2.83736 20.9188 0.254785H20.9199Z" fill="white"/>
</svg>
