<svg width="17" height="14" viewBox="0 0 17 14" fill="none" xmlns="http://www.w3.org/2000/svg">
<path d="M14.8719 0.753282C14.8719 0.753282 16.3435 0.179419 16.2204 1.57298C16.1798 2.14684 15.812 4.15555 15.5257 6.3279L14.5446 12.7635C14.5446 12.7635 14.4628 13.7063 13.7268 13.8703C12.9912 14.034 11.8874 13.2965 11.6829 13.1324C11.5192 13.0093 8.61696 11.1646 7.59499 10.2631C7.30862 10.0169 6.98135 9.52525 7.6359 8.95139L11.9279 4.85215C12.4185 4.36048 12.909 3.21275 10.8651 4.60631L5.14158 8.50025C5.14158 8.50025 4.48741 8.91048 3.26127 8.54154L0.603698 7.72146C0.603698 7.72146 -0.377363 7.10669 1.29877 6.49192C5.38703 4.5654 10.4154 2.59798 14.8711 0.753282H14.8719Z" fill="white"/>
</svg>
