<svg width="20" height="17" viewBox="0 0 20 17" fill="none" xmlns="http://www.w3.org/2000/svg">
<path d="M17.7207 0.430896C17.7207 0.430896 19.5038 -0.264464 19.3547 1.42414C19.3056 2.1195 18.8599 4.55349 18.5129 7.18576L17.3241 14.9839C17.3241 14.9839 17.225 16.1263 16.3332 16.3251C15.4418 16.5233 14.1044 15.6297 13.8565 15.431C13.6582 15.2818 10.1415 13.0465 8.90316 11.9541C8.55616 11.6558 8.1596 11.06 8.95273 10.3647L14.1535 5.39756C14.7479 4.8018 15.3422 3.41108 12.8656 5.09968L5.93032 9.81804C5.93032 9.81804 5.13765 10.3151 3.65192 9.86807L0.431688 8.87437C0.431688 8.87437 -0.757081 8.12944 1.27392 7.3845C6.22774 5.05011 12.3207 2.66615 17.7198 0.430896H17.7207Z" fill="white"/>
</svg>
