<svg width="17" height="14" viewBox="0 0 17 14" fill="none" xmlns="http://www.w3.org/2000/svg">
<path d="M15.3719 0.753466C15.3719 0.753466 16.8435 0.179602 16.7204 1.57316C16.6798 2.14703 16.312 4.15574 16.0257 6.32809L15.0446 12.7637C15.0446 12.7637 14.9628 13.7065 14.2268 13.8705C13.4912 14.0341 12.3874 13.2966 12.1829 13.1326C12.0192 13.0095 9.11696 11.1648 8.09499 10.2633C7.80862 10.0171 7.48135 9.52544 8.1359 8.95157L12.4279 4.85233C12.9185 4.36066 13.409 3.21294 11.3651 4.6065L5.64158 8.50044C5.64158 8.50044 4.98741 8.91066 3.76127 8.54172L1.1037 7.72165C1.1037 7.72165 0.122637 7.10687 1.79877 6.4921C5.88703 4.56559 10.9154 2.59816 15.3711 0.753466H15.3719Z" fill="white"/>
</svg>
