<svg width="23" height="19" viewBox="0 0 23 19" fill="none" xmlns="http://www.w3.org/2000/svg">
<path d="M20.4199 0.254693C20.4199 0.254693 22.4801 -0.548716 22.3077 1.40227C22.251 2.20568 21.7361 5.01787 21.3352 8.05916L19.9617 17.069C19.9617 17.069 19.8471 18.3889 18.8167 18.6186C17.7869 18.8476 16.2416 17.8151 15.9552 17.5855C15.7261 17.4132 11.663 14.8306 10.2322 13.5685C9.83129 13.2238 9.37311 12.5354 10.2895 11.732L16.2983 5.9931C16.9851 5.30477 17.6718 3.69795 14.8103 5.64894L6.79743 11.1004C6.79743 11.1004 5.88159 11.6748 4.165 11.1583L0.444396 10.0101C0.444396 10.0101 -0.929089 9.14947 1.4175 8.28878C7.14106 5.59166 14.1808 2.83727 20.4188 0.254693H20.4199Z" fill="white"/>
</svg>
