<svg width="20" height="17" viewBox="0 0 20 17" fill="none" xmlns="http://www.w3.org/2000/svg">
<path d="M17.6478 0.504049C17.6478 0.504049 19.4137 -0.184588 19.266 1.48768C19.2174 2.17632 18.776 4.58678 18.4324 7.19359L17.2551 14.9163C17.2551 14.9163 17.1569 16.0477 16.2737 16.2445C15.391 16.4409 14.0665 15.5559 13.821 15.359C13.6246 15.2113 10.1419 12.9977 8.91555 11.9159C8.57191 11.6204 8.17918 11.0304 8.96464 10.3418L14.1151 5.42268C14.7037 4.83268 15.2924 3.45541 12.8396 5.12769L5.97146 9.80041C5.97146 9.80041 5.18646 10.2927 3.71509 9.84996L0.526 8.86587C0.526 8.86587 -0.651273 8.12814 1.36009 7.39041C6.266 5.07859 12.3001 2.71769 17.6469 0.504049H17.6478Z" fill="white"/>
</svg>
